<?xml version="1.0" encoding="UTF-8" standalone="no"?>
<!-- Created with Inkscape (http://www.inkscape.org/) -->

<svg
   width="206.07832mm"
   height="34.31007mm"
   viewBox="0 0 206.07832 34.31007"
   version="1.1"
   id="svg5"
   inkscape:version="1.1 (c68e22c387, 2021-05-23)"
   sodipodi:docname="Error404.svg"
   xmlns:inkscape="http://www.inkscape.org/namespaces/inkscape"
   xmlns:sodipodi="http://sodipodi.sourceforge.net/DTD/sodipodi-0.dtd"
   xmlns="http://www.w3.org/2000/svg"
   xmlns:svg="http://www.w3.org/2000/svg">
  <sodipodi:namedview
     id="namedview7"
     pagecolor="#ffffff"
     bordercolor="#666666"
     borderopacity="1.0"
     inkscape:pageshadow="2"
     inkscape:pageopacity="0.0"
     inkscape:pagecheckerboard="0"
     inkscape:document-units="mm"
     showgrid="false"
     fit-margin-top="0"
     fit-margin-left="0"
     fit-margin-right="0"
     fit-margin-bottom="0"
     inkscape:zoom="0.94867184"
     inkscape:cx="335.73253"
     inkscape:cy="225.05148"
     inkscape:window-width="2560"
     inkscape:window-height="1417"
     inkscape:window-x="1912"
     inkscape:window-y="-8"
     inkscape:window-maximized="1"
     inkscape:current-layer="layer1" />
  <defs
     id="defs2" />
  <g
     inkscape:label="Layer 1"
     inkscape:groupmode="layer"
     id="layer1"
     transform="translate(1.1990224,-137.07076)">
    <path
       style="fill:#000000;stroke-width:0.445585"
       d="m 154.67268,169.95835 -0.13963,-1.42248 -1.49363,-0.38439 -1.49363,-0.38438 -0.6905,-1.75782 -0.69048,-1.75781 h -1.26917 -1.26916 v -1.55955 -1.55955 h 1.33675 1.33676 v -1.33676 -1.33675 h -1.33676 -1.33675 v -1.33676 -1.33676 h 1.33675 1.33676 v -1.55954 -1.55955 h -1.33676 -1.33675 v -1.33676 -1.33676 h 1.33675 1.33676 v -1.33675 -1.33676 h -1.33676 -1.33675 v -1.55955 -1.55955 h 1.33077 1.33078 l 0.65832,-1.57558 0.65832,-1.57559 1.57559,-0.65832 1.57558,-0.65832 v -1.33077 -1.33078 h 1.33676 1.33675 v 1.33676 1.33675 h 1.33676 1.33676 v -1.33675 -1.33676 h 1.55954 1.55955 v 1.33676 1.33675 h 1.33676 1.33675 v -1.33675 -1.33676 h 1.55955 1.55955 v 1.33676 1.33675 h 1.33676 1.33675 v -1.33675 -1.33676 h 1.33676 1.33676 v 1.35074 1.35074 l 0.77977,0.24096 c 1.61839,0.50009 2.13949,0.95256 2.933,2.54668 l 0.81648,1.64024 h 1.30005 1.30006 v 1.55955 1.55955 h -1.33675 -1.33676 v 1.33676 1.33675 h 1.33676 1.33675 v 1.33676 1.33676 h -1.33675 -1.33676 v 1.55955 1.55954 h 1.33676 1.33675 v 1.33676 1.33676 h -1.33675 -1.33676 v 1.33675 1.33676 h 1.33676 1.33675 v 1.53132 1.53131 l -1.42248,0.13963 -1.42248,0.13963 -0.38439,1.49363 -0.38438,1.49363 -1.75782,0.69049 -1.75781,0.69049 v 1.26917 1.26916 h -1.33676 -1.33676 v -1.33675 -1.33676 h -1.33675 -1.33676 v 1.33676 1.33675 h -1.55955 -1.55955 v -1.33675 -1.33676 h -1.33675 -1.33676 v 1.33676 1.33675 h -1.55955 -1.55954 v -1.33675 -1.33676 h -1.33676 -1.33676 v 1.33676 1.33675 h -1.30852 -1.30852 z m 20.80288,-15.73255 v -11.13964 h -10.91684 -10.91684 l -0.1197,10.68524 c -0.0658,5.87688 -0.0206,10.94342 0.10046,11.25898 l 0.22016,0.57374 10.81638,-0.11935 10.81638,-0.11934 z m -13.30437,8.46566 c -0.36786,-0.36786 -1.58526,-2.13919 -2.70533,-3.93627 l -2.03651,-3.26744 v -4.75264 -4.75264 h 1.55955 1.55955 v 4.3584 4.35839 l 1.63291,2.61055 1.63291,2.61055 2.37736,-2.47391 2.37736,-2.47391 v -4.49503 -4.49504 h 1.55955 1.55954 v 4.94757 4.94757 l -3.39665,3.74134 -3.39665,3.74135 h -1.02737 c -0.56506,0 -1.32836,-0.30098 -1.69622,-0.66884 z m -161.9870059,0.74122 -1.3832065,-2.15554 v -8.4511 -8.4511 l 1.46936533,-1.42416 1.46936527,-1.42417 h 6.3283779 6.3283779 v 1.76941 1.76941 l -5.9040055,0.12433 -5.9040056,0.12433 -0.1309174,3.23049 -0.130917,3.2305 h 3.8069959 3.8069964 v 1.55954 1.55955 H 6.1531355 2.3656602 v 2.85987 c 0,1.57292 0.1217094,3.17703 0.2704654,3.56468 l 0.2704654,0.70482 h 5.7449365 5.7449365 v 1.78234 1.78234 H 7.9819273 1.5673901 Z m 19.1137189,0.3732 v -1.78234 H 20.857451 22.417 v -5.25791 -5.25791 l -0.534703,-0.5347 c -0.294086,-0.29408 -0.995883,-0.5347 -1.559548,-0.5347 h -1.024846 v -1.78234 -1.78234 h 0.686129 c 0.377371,0 1.501495,0.41597 2.498053,0.92437 l 1.811925,0.92438 0.983951,-0.92438 0.98395,-0.92437 h 3.611019 3.611019 l 0.99845,1.61552 0.998445,1.61552 -1.073499,0.82529 c -0.590428,0.45391 -1.199338,0.82975 -1.353136,0.8352 -0.153794,0.005 -0.529244,-0.29086 -0.834332,-0.65847 l -0.554705,-0.66838 h -2.380481 -2.380482 l -0.461265,0.86188 -0.461262,0.86187 v 4.90745 4.90745 l 2.339323,0.13468 2.339323,0.13468 0.138297,1.67095 0.138292,1.67094 h -5.819505 -5.819509 z m 20.581421,0.1114 0.138296,-1.67095 1.670945,-0.13829 1.670945,-0.1383 -0.01417,-4.98593 -0.01417,-4.98594 -0.591933,-0.77978 -0.591933,-0.77977 H 40.97107 39.794832 v -1.78234 -1.78234 h 0.949974 c 0.522485,0 1.63725,0.42476 2.477254,0.94391 l 1.527284,0.94391 1.00475,-0.94391 1.004746,-0.94391 h 3.631298 3.631297 l 1.122956,1.65258 1.122955,1.65258 -1.388043,0.87884 -1.388043,0.87885 -0.547745,-0.74908 -0.547749,-0.74909 h -2.20108 -2.201084 l -0.534703,0.5347 -0.534702,0.5347 v 5.25791 5.25791 h 2.227926 2.227927 v 1.78234 1.78234 h -5.819509 -5.819505 z m 22.241222,-0.4846 -1.383208,-2.15554 v -5.77759 -5.77758 l 1.469366,-1.42417 1.469363,-1.42416 h 4.945172 4.945173 l 1.383204,2.15554 1.383208,2.15554 v 5.77759 5.77758 l -1.469366,1.42417 -1.469363,1.42416 H 68.448923 63.50375 Z m 10.551238,-6.69239 0.126435,-5.06045 -0.529218,-0.63767 -0.529221,-0.63767 -3.607481,0.1283 -3.607486,0.12831 -0.129924,4.67865 c -0.07146,2.57325 -0.01555,5.13752 0.124194,5.69837 l 0.254117,1.01973 3.886075,-0.12856 3.886074,-0.12855 z m 8.20139,7.17699 0.138296,-1.67095 1.670945,-0.13829 1.670945,-0.1383 -0.01417,-4.98593 -0.01417,-4.98594 -0.591933,-0.77978 -0.591933,-0.77977 H 81.96492 80.788682 v -1.78234 -1.78234 h 0.949974 c 0.522484,0 1.63725,0.42476 2.477254,0.94391 l 1.527284,0.94391 1.00475,-0.94391 1.004746,-0.94391 h 3.631298 3.631297 l 1.122955,1.65258 1.122956,1.65258 -1.388043,0.87884 -1.388043,0.87885 -0.547745,-0.74908 -0.547749,-0.74909 h -2.20108 -2.201085 l -0.534702,0.5347 -0.534702,0.5347 v 5.25791 5.25791 h 2.227926 2.227927 v 1.78234 1.78234 h -5.819509 -5.819505 z m 52.494576,-2.33933 v -4.01026 l -4.56725,-0.008 -4.56725,-0.008 -1.44816,-2.21474 c -0.79648,-1.21811 -1.44815,-2.37782 -1.44815,-2.57714 0,-0.19931 2.4231,-2.90857 5.38467,-6.02057 l 5.38468,-5.65819 h 2.41307 2.41307 v 6.68378 6.68378 h 1.11396 1.11397 v 1.55955 1.55955 h -1.11397 -1.11396 v 4.01026 4.01027 h -1.78234 -1.78234 z m 0,-11.91639 v -4.78704 l -4.03022,4.03022 -4.03022,4.03022 0.29041,0.75682 0.29042,0.75681 h 3.7398 3.73981 z m 65.71894,11.91639 v -4.01026 l -4.56725,-0.008 -4.56725,-0.008 -1.44815,-2.21474 c -0.79649,-1.21811 -1.44815,-2.37782 -1.44815,-2.57714 0,-0.19931 2.4231,-2.90857 5.38467,-6.02057 l 5.38467,-5.65819 h 2.41307 2.41307 v 6.68378 6.68378 h 1.11397 1.11396 v 1.55955 1.55955 h -1.11396 -1.11397 v 4.01026 4.01027 h -1.78234 -1.78234 z m 0,-11.91639 v -4.78704 l -4.03022,4.03022 -4.03022,4.03022 0.29042,0.75682 0.29042,0.75681 h 3.7398 3.7398 z"
       id="path1054"
       sodipodi:nodetypes="ccccccccccccccccccccccccccccccccccccccccccccccccccccccccccccccccccccccssccccccccccccccccccccccccccccccccccccccccccccccccccccccccccccccccccccccccccsscccccccccccccccccccssccccccccccccccccccccssccccccccccccccsscccsccccccccscsccccccccccccccccccccccccccsscccccccccccccccccccccccccccccccccccccccccccccccscccccccccccccccccssccccccccccccccccccccccccccccssscccccccccccccccccccccccccccccsssccccccccccccccccccccccccc" />
  </g>
</svg>
